<?xml version="1.0" encoding="utf-8"?>
<!-- Generator: Adobe Illustrator 18.0.0, SVG Export Plug-In . SVG Version: 6.00 Build 0)  -->
<!DOCTYPE svg PUBLIC "-//W3C//DTD SVG 1.1//EN" "http://www.w3.org/Graphics/SVG/1.1/DTD/svg11.dtd">
<svg version="1.1" id="Layer_1" xmlns="http://www.w3.org/2000/svg" xmlns:xlink="http://www.w3.org/1999/xlink" x="0px" y="0px"
	 viewBox="0 0 2272 1872" enable-background="new 0 0 2272 1872" xml:space="preserve">
<rect fill="#FFFFFF" width="2272" height="1872"/>
<ellipse fill="#6eb639" cx="1136" cy="1727.9" rx="674" ry="57.1"/>
<g>
	<g>
		<path fill="#3A3230" d="M976.8,1668.7c-13.7-13.3-28-26.3-45-36c-17-9.7-37-15.8-57-14.1c-9.1,0.8-19,4-22.7,11.6
			c-1.5,3-1.7,6.4-2,9.7c-0.8,12.9-1.5,25.9-1.1,38.8c0.4,12.1,1,25.1,6.7,36c3,5.7,7.9,7.6,12.7,2.8c4.1-4,6.2-10.5,7.3-15.8
			c0.1-0.3,0.1-0.6,0.2-0.8c0.3-1.2,0.7-2.5,1.7-3.2c2.1-1.5,5.1,0.1,7.3,1.6c16.7,11.7,37.1,16.6,57,19.6c13.8,2.1,31,5.3,44.3-0.5
			C1010.5,1707.8,988,1679.6,976.8,1668.7z"/>
		<path fill="#3A3230" d="M808.5,1662.8c-13.7-13.3-28-26.3-45-36c-17-9.7-37-15.8-57-14.1c-9.1,0.8-19,4-22.7,11.6
			c-1.5,3-1.7,6.4-2,9.7c-0.8,12.9-1.5,25.9-1.1,38.8c0.4,12.1,1,25.1,6.7,36c3,5.7,7.9,7.6,12.7,2.8c4.1-4,6.2-10.5,7.3-15.8
			c0.1-0.3,0.1-0.6,0.2-0.8c0.3-1.2,0.7-2.5,1.7-3.2c2.1-1.5,5.1,0.1,7.3,1.6c16.7,11.7,37.1,16.6,57,19.6c13.8,2.1,31,5.3,44.3-0.5
			C842.1,1701.9,819.7,1673.7,808.5,1662.8z"/>
		<path fill="#FCC29A" d="M1247.3,937.7c-7.1-12.1-17.9-22.3-31-27.1c-10.7-3.9-22.9-3.9-33.3,0.4c-6.4-1.7-13.8-5-20.4-4.5
			c0,0,0,0,0,0c-0.7-0.1-1.4-0.1-2-0.1c-0.2,0-0.3-0.1-0.5-0.1c-1.8-0.5-3,0.9-2.9,2.4c-0.3,0.6-0.6,1.1-0.9,1.7
			c-1.1-0.1-2.1,0-3.1,0.4c-4.1,1.8-3.2,13.4-3.1,16.9c0,0.6,0.3,1.1,0.6,1.4c0,0.4-0.1,0.8-0.1,1.2c0,1.6,0,3.3,0.1,4.9
			c-0.1,1.3-0.2,2.6-0.3,3.8c-0.9,1.1-0.8,3.1,0.8,3.9c0.1,1.2,0.3,2.4,0.4,3.5c1.5-0.1,2.9-0.3,4.4-0.4c5.8,2.3,11.7,3.8,17.8,4.6
			c9.4,9.2,20.7,16.5,33,21.3c3.6,1.4,7.4,2.6,11.2,1.8c3.7-0.8,7.1-4.4,6.4-8.2c2,1.9,5.3,2.2,7.7,0.8s3.7-4.4,3-7.1
			c1.8,1.5,4.8,1.5,6.4-0.2c1.7-1.6,1.9-4.6,0.4-6.4c3.1,2.1,7.5-0.8,8.3-4.4C1250.8,944.5,1249.2,940.8,1247.3,937.7z"/>
		<path fill="#FCC29A" d="M767.6,1177.6c-19.1,0.7-30.5,16.1-31.5,33.9c-2,34.4-4.2,68.9-6.9,103.3c-1.3,17.2-2.7,34.4-4.2,51.6
			c-0.7,8.6-1.5,17.2-2.3,25.8c-0.4,4.7-0.9,9.4-1.3,14.1c-0.1,1.4-0.3,2.8-0.4,4.2c-0.1,1.2-0.3,2.7-0.3,3.4
			c-4,40.6-8.5,81.1-13.5,121.6c-2.5,20.5-5.2,41-7.9,61.4c-1.9,14.3-11.2,34.9,0.7,47c14.9,15.2,40.4,22.7,60.7,26
			c8.8,1.4,29.8,3.1,24.4-12.7c-3.8-11.1-14.7-19-22.8-26.9c-0.5-0.5-1.1-1-1.6-1.5c19.3-139.2,33-279.2,40.9-419.5
			C802.5,1191.3,784.2,1177,767.6,1177.6z"/>
		<path fill="#FCC29A" d="M936,1183.6c-19.1,0.7-30.5,16.1-31.5,33.9c-2,34.4-4.2,68.9-6.9,103.3c-1.3,17.2-2.7,34.4-4.2,51.6
			c-0.7,8.6-1.5,17.2-2.3,25.8c-0.4,4.7-0.9,9.4-1.3,14.1c-0.1,1.4-0.3,2.8-0.4,4.2c-0.1,1.2-0.3,2.7-0.3,3.4
			c-4,40.6-8.5,81.1-13.5,121.6c-2.5,20.5-5.2,41-7.9,61.4c-1.9,14.3-11.2,34.9,0.7,47c14.9,15.2,40.4,22.7,60.7,26
			c8.8,1.4,29.8,3.1,24.4-12.7c-3.8-11.1-14.7-19-22.8-26.9c-0.5-0.5-1.1-1-1.6-1.5c19.3-139.2,33-279.2,40.9-419.5
			C970.9,1197.3,952.6,1183,936,1183.6z"/>
		<path fill="#583013" d="M1051.8,368.6c-0.3-1.9-0.7-3.9-1-5.8c-0.3,2.5-0.7,5.1-1.2,7.6C1050.3,369.8,1051,369.2,1051.8,368.6z"/>
		<path fill="#302E2D" d="M997.2,1236.9c12.6-68.6,13.1-138.1,8.6-207.4c-0.9-13.3-2-26.2-5.7-39c-3.1-10.9-6.5-21.6-8.2-32.8
			c-1-2-2.2-3.8-3.6-5.6c-0.1-0.1-0.1-0.1-0.2-0.2c-75.1-14-153-13.4-227.9,1.8c-1.7-4.4-6.1-7.7-10.5-7c-1.1-1.2-2.5-2.2-4.1-2.8
			c0,0,0-0.1-0.1-0.1c-1.1-2.5-3-4.5-6-5.4c-4.6-1.4-11.2,1.6-12,7.2c-0.1,0.8-0.2,1.6-0.4,2.3c-0.1,0.2-0.2,0.3-0.2,0.5
			c-0.7,1.3-1.5,2.6-2.2,3.8c-8.5,11.5-15.1,24.1-20,37.9c-1.2,3.4-2.2,6.9-3.1,10.4c-1.1,2.2-2.1,4.4-3,6.7
			c-8.9,21.8-8.6,46.3-8.7,69.7c-0.3,49.9,3.8,99.8,11.4,149.1c0.5,3.1,2,5.1,3.9,6.3c-0.1,1-0.1,2.1-0.2,3.1
			c-0.3,5,59.1,18.8,66.1,20.5c24.7,5.7,49.8,9.5,75.1,11.4c45,3.5,102.8,7.5,146.2-7.3C994.2,1252.4,995.7,1244.7,997.2,1236.9z"/>
		<g>
			<path fill="#501E10" d="M739.6,1067.2c-11.2-14.3-28.2-21.8-46.3-18.8c-16.1,2.6-33.8,7.7-47.5,16.6
				c-16.2,10.6-22.8,27.8-24.7,46.3c-0.5,5.2,4.7,9.5,9.5,9.5c5.6,0,9-4.4,9.5-9.5c1.3-12.6,5.9-23.7,16.7-30.8
				c10.9-7.1,24.9-10.2,37.4-13c12.6-2.8,22.7,2.2,30.7,11.8c9.1,10.8,10.4,27,10.6,40.4c0.1,12.3,19.2,12.3,19,0
				C754.5,1101.2,751.3,1082.1,739.6,1067.2z"/>
			<g>
				<path fill="#5F2712" d="M741.5,1138.7c-46.2,8.6-91.5,22.1-135.8,37.7c-14.1,4.9-28.3,10.2-40.2,19.3c-1.2,0.9-2.3,1.9-3,3.2
					c-0.8,1.6-0.8,3.4-0.8,5.2c0,22.9,0.9,53,2,78.9c0.5,12.6,6.3,18.3,18.7,20.6c65.3,12.1,204.2,6.2,228.9,3.6
					c7.3-0.8,14.8-1.7,21.6-4.5c24.2-9.7,18.7-45.7,18.5-65.7c-0.4-35.7-8.9-119.2-11-122.3c-4.3-6.2-13.7-2.7-21.2-1.9
					c-19.1,2-35.3,14.5-53.6,20.5C757.7,1135.9,749.6,1137.2,741.5,1138.7z"/>
				<path fill="#4A241B" d="M840.2,1114.7c-4.3-6.2-13.7-2.7-21.2-1.9c-0.4,0-0.8,0.1-1.2,0.2c-2.6,18.2-6.2,36.5-6.6,54.9
					c-0.4,20,1.5,40.4,4,60.2c2.3,18.1,4.4,37,9.3,54.6c2.4,8.5,6,15.4,12.3,17.9c19.5-12,14.6-44.9,14.4-63.7
					C850.9,1201.3,842.4,1117.7,840.2,1114.7z"/>
				<g>
					<path fill="#5F2712" d="M850.5,1278.1c-0.1,0.5-0.2,1-0.3,1.4C850.2,1279.1,850.4,1278.6,850.5,1278.1z"/>
					<path fill="#5F2712" d="M850,1280.3c-0.1,0.5-0.2,0.9-0.3,1.4C849.7,1281.2,849.9,1280.8,850,1280.3z"/>
					<path fill="#5F2712" d="M850.8,1275.9c-0.1,0.5-0.2,1.1-0.3,1.6C850.7,1276.9,850.8,1276.4,850.8,1275.9z"/>
					<path fill="#5F2712" d="M849.4,1282.5c-0.1,0.4-0.3,0.9-0.4,1.3C849.2,1283.4,849.3,1282.9,849.4,1282.5z"/>
					<path fill="#5F2712" d="M851.6,1269.4c-0.2,2.1-0.4,4.2-0.7,6.2C851.2,1273.5,851.4,1271.5,851.6,1269.4z"/>
					<path fill="#5F2712" d="M847.2,1288.6c-0.2,0.4-0.4,0.8-0.6,1.1C846.8,1289.4,847,1289,847.2,1288.6z"/>
					<path fill="#5F2712" d="M851.7,1267.4c0,0.6-0.1,1.1-0.1,1.7C851.7,1268.5,851.7,1268,851.7,1267.4z"/>
					<path fill="#5F2712" d="M848.8,1284.6c-0.1,0.4-0.3,0.8-0.4,1.2C848.5,1285.4,848.6,1285,848.8,1284.6z"/>
					<path fill="#5F2712" d="M845.1,1292.3c-0.2,0.4-0.5,0.7-0.7,1C844.7,1293,844.9,1292.7,845.1,1292.3z"/>
					<path fill="#5F2712" d="M848,1286.6c-0.2,0.4-0.3,0.8-0.5,1.2C847.7,1287.4,847.9,1287.1,848,1286.6z"/>
					<path fill="#5F2712" d="M851.9,1255.9c0,0.5,0,0.9,0,1.4C851.9,1256.8,851.9,1256.3,851.9,1255.9z"/>
					<path fill="#5F2712" d="M851.8,1251.3c0,0.5,0,0.9,0,1.4C851.8,1252.2,851.8,1251.7,851.8,1251.3z"/>
					<path fill="#5F2712" d="M851.7,1249c0,0.5,0,1,0.1,1.5C851.7,1249.9,851.7,1249.4,851.7,1249z"/>
					<path fill="#5F2712" d="M851.5,1243.6c0.1,1.5,0.1,3.1,0.2,4.8C851.6,1246.7,851.5,1245.1,851.5,1243.6z"/>
					<path fill="#5F2712" d="M851.4,1241.5c0,0.4,0,0.9,0,1.3C851.4,1242.4,851.4,1242,851.4,1241.5z"/>
					<path fill="#5F2712" d="M851.3,1239.5c0,0.4,0,0.9,0,1.3C851.3,1240.4,851.3,1239.9,851.3,1239.5z"/>
					<path fill="#5F2712" d="M851.9,1262.9c0,0.5,0,1,0,1.5C851.9,1263.8,851.9,1263.3,851.9,1262.9z"/>
					<path fill="#5F2712" d="M851.9,1260.5c0,0.5,0,1,0,1.4C851.9,1261.5,851.9,1261,851.9,1260.5z"/>
					<path fill="#5F2712" d="M851.8,1265.2c0,0.5,0,1-0.1,1.5C851.8,1266.2,851.8,1265.7,851.8,1265.2z"/>
					<path fill="#5F2712" d="M844,1294.1c-0.2,0.3-0.5,0.7-0.8,1C843.5,1294.7,843.7,1294.4,844,1294.1z"/>
					<path fill="#5F2712" d="M851.8,1253.6c0,0.5,0,0.9,0,1.4C851.9,1254.5,851.9,1254,851.8,1253.6z"/>
					<path fill="#5F2712" d="M851.9,1258.2c0,0.5,0,0.9,0,1.4C851.9,1259.1,851.9,1258.7,851.9,1258.2z"/>
					<path fill="#5F2712" d="M846.2,1290.5c-0.2,0.4-0.4,0.7-0.6,1.1C845.8,1291.3,846,1290.9,846.2,1290.5z"/>
					<path fill="#5F2712" d="M839.7,1298.6c-0.3,0.3-0.7,0.6-1.1,0.8C839,1299.1,839.4,1298.9,839.7,1298.6z"/>
					<path fill="#5F2712" d="M841.2,1297.2c-0.3,0.3-0.6,0.6-0.9,0.9C840.6,1297.8,840.9,1297.5,841.2,1297.2z"/>
					<path fill="#5F2712" d="M817.9,1113c-8.7,1.1-16.8,4.3-24.8,8.1c8,0.3,15.8,0.7,23.4,1C816.9,1119,817.4,1116,817.9,1113z"/>
					<path fill="#5F2712" d="M838.1,1299.8c-0.4,0.3-0.8,0.6-1.2,0.8C837.3,1300.4,837.7,1300.1,838.1,1299.8z"/>
					<path fill="#5F2712" d="M851.3,1237c0,0.6,0,1.2,0,1.9C851.3,1238.2,851.3,1237.6,851.3,1237c-0.1-5-0.3-11-0.6-17.6
						C851,1226,851.2,1232,851.3,1237z"/>
					<path fill="#5F2712" d="M842.7,1295.7c-0.3,0.3-0.6,0.6-0.8,0.9C842.1,1296.3,842.4,1296,842.7,1295.7z"/>
					<path fill="#4A241B" d="M846.6,1166c0.2,1.6,0.3,3.3,0.5,4.9C846.9,1169.3,846.8,1167.6,846.6,1166z"/>
					<path fill="#4A241B" d="M851.9,1259.6c0,0.3,0,0.6,0,0.9C851.9,1260.2,851.9,1259.9,851.9,1259.6z"/>
					<path fill="#501E10" d="M794.4,1241.8c8,0,17.4-0.9,21.6-7.7c-0.2-2-0.5-4-0.7-6c-2.5-19.9-4.3-40.2-4-60.2
						c0.3-15.4,2.8-30.6,5.2-45.8c-7.6-0.4-15.4-0.7-23.4-1c-9.1,4.3-18.1,9.1-27.6,12.3c-7.8,2.5-15.9,3.9-23.9,5.4
						c-46.2,8.6-91.5,22.1-135.8,37.7c-14.1,4.9-28.3,10.2-40.2,19.3c-1.2,0.9-2.3,1.9-3,3.2c-0.8,1.6-0.8,3.4-0.8,5.2
						c0,10,0.2,21.3,0.4,33.1c2,0.4,4.1,0.5,6.1,0.6C643.5,1240.9,719,1242.2,794.4,1241.8z"/>
					<path fill="#4A241B" d="M850.5,1217.2c0,0.7,0.1,1.5,0.1,2.2C850.6,1218.7,850.6,1218,850.5,1217.2z"/>
					<path fill="#4A241B" d="M851.9,1264.3c0,0.3,0,0.5,0,0.8C851.8,1264.9,851.9,1264.6,851.9,1264.3z"/>
					<path fill="#4A241B" d="M851.4,1242.9c0,0.2,0,0.4,0,0.7C851.4,1243.3,851.4,1243.1,851.4,1242.9z"/>
					<path fill="#4A241B" d="M848.2,1183.4c0.1,1.7,0.3,3.3,0.4,5C848.4,1186.7,848.3,1185.1,848.2,1183.4z"/>
					<path fill="#4A241B" d="M851.9,1262c0,0.3,0,0.6,0,0.9C851.9,1262.6,851.9,1262.3,851.9,1262z"/>
					<path fill="#4A241B" d="M849.2,1195.9c0.3,4.1,0.6,8.2,0.8,12.1C849.7,1204.1,849.5,1200,849.2,1195.9z"/>
					<path fill="#4A241B" d="M851.7,1248.3c0,0.2,0,0.4,0,0.6C851.7,1248.8,851.7,1248.5,851.7,1248.3z"/>
					<path fill="#4A241B" d="M851.4,1240.8c0,0.2,0,0.5,0,0.7C851.4,1241.3,851.4,1241.1,851.4,1240.8z"/>
					<path fill="#4A241B" d="M851.9,1257.3c0,0.3,0,0.6,0,0.9C851.9,1257.9,851.9,1257.6,851.9,1257.3z"/>
					<path fill="#4A241B" d="M851.7,1250.4c0,0.3,0,0.6,0,0.9C851.8,1251,851.7,1250.7,851.7,1250.4z"/>
					<path fill="#4A241B" d="M851.3,1238.9c0,0.2,0,0.4,0,0.6C851.3,1239.3,851.3,1239.1,851.3,1238.9z"/>
					<path fill="#4A241B" d="M851.8,1252.7c0,0.3,0,0.6,0,0.9C851.8,1253.3,851.8,1253,851.8,1252.7z"/>
					<path fill="#4A241B" d="M851.9,1254.9c0,0.3,0,0.6,0,0.9C851.9,1255.6,851.9,1255.3,851.9,1254.9z"/>
					<path fill="#4A241B" d="M851.6,1269.1c0,0.1,0,0.2,0,0.3C851.6,1269.3,851.6,1269.2,851.6,1269.1z"/>
					<path fill="#4A241B" d="M848.3,1285.8c-0.1,0.3-0.2,0.5-0.3,0.8C848.1,1286.4,848.2,1286.1,848.3,1285.8z"/>
					<path fill="#4A241B" d="M847.5,1287.8c-0.1,0.3-0.2,0.5-0.4,0.8C847.3,1288.4,847.4,1288.1,847.5,1287.8z"/>
					<path fill="#4A241B" d="M840.3,1298.1c-0.2,0.2-0.4,0.3-0.6,0.5C839.9,1298.4,840.1,1298.2,840.3,1298.1z"/>
					<path fill="#4A241B" d="M851.8,1266.7c0,0.2,0,0.5,0,0.7C851.7,1267.2,851.8,1266.9,851.8,1266.7z"/>
					<path fill="#4A241B" d="M841.8,1296.6c-0.2,0.2-0.4,0.4-0.6,0.6C841.4,1297,841.6,1296.8,841.8,1296.6z"/>
					<path fill="#4A241B" d="M843.2,1295c-0.2,0.2-0.4,0.4-0.5,0.6C842.8,1295.5,843,1295.3,843.2,1295z"/>
					<path fill="#4A241B" d="M849.6,1281.7c-0.1,0.3-0.1,0.5-0.2,0.8C849.5,1282.2,849.6,1282,849.6,1281.7z"/>
					<path fill="#4A241B" d="M845.6,1291.6c-0.1,0.2-0.3,0.5-0.4,0.7C845.3,1292.1,845.4,1291.9,845.6,1291.6z"/>
					<path fill="#4A241B" d="M846.6,1289.8c-0.1,0.3-0.3,0.5-0.4,0.8C846.3,1290.3,846.5,1290,846.6,1289.8z"/>
					<path fill="#4A241B" d="M849,1283.8c-0.1,0.3-0.2,0.5-0.3,0.8C848.8,1284.3,848.9,1284.1,849,1283.8z"/>
					<polygon fill="#4A241B" points="836.8,1300.6 836.8,1300.6 836.8,1300.6 					"/>
					<path fill="#4A241B" d="M850.9,1275.6c0,0.1,0,0.2,0,0.3C850.9,1275.8,850.9,1275.7,850.9,1275.6z"/>
					<path fill="#4A241B" d="M817.9,1113L817.9,1113c0.4-0.1,0.8-0.1,1.2-0.2C818.6,1112.9,818.2,1112.9,817.9,1113z"/>
					<path fill="#4A241B" d="M844.5,1293.4c-0.2,0.2-0.3,0.5-0.5,0.7C844.1,1293.8,844.3,1293.6,844.5,1293.4z"/>
					<path fill="#4A241B" d="M845.3,1151.9c0.2,1.5,0.3,3,0.5,4.6C845.6,1154.9,845.4,1153.4,845.3,1151.9z"/>
					<path fill="#4A241B" d="M850.6,1277.5c0,0.2-0.1,0.4-0.1,0.6C850.5,1277.9,850.5,1277.7,850.6,1277.5z"/>
					<path fill="#4A241B" d="M838.6,1299.4c-0.2,0.1-0.4,0.3-0.6,0.4C838.3,1299.7,838.5,1299.6,838.6,1299.4z"/>
					<path fill="#4A241B" d="M850.1,1279.6c-0.1,0.3-0.1,0.5-0.2,0.8C850,1280.1,850.1,1279.8,850.1,1279.6z"/>
				</g>
				<path fill="#70311F" d="M548,1132c-0.7,4.7-0.8,9.6-0.9,14.7c-0.4,20.2-0.1,40.5,1,60.7c0.3,5.5,1,11.7,5.3,15.1
					c3.3,2.6,7.8,2.9,12,3.1c75.4,3.1,150.8,4.5,226.2,4c8,0,17.5-0.9,21.6-7.8c2.3-3.8,2.2-8.6,2.1-13c-0.5-16.1-1-32.1-1.5-48.2
					c-0.3-9.4-0.5-19.2,3-28c3.5-8.8,8.8-22.2,18.2-21.7c-98.2-5.4-257.8-7.3-269.5-2.8C553.5,1112.9,549.5,1121.8,548,1132z"/>
				<path fill="#7C3F23" d="M565.5,1108.2c-10.8,4.2-15.1,11.9-16.9,20.9c44.3,3.7,88.7,4.3,133.1,4.9c23,0.3,45.9,1,68.9,1.2
					c21.6,0.2,43.3-0.2,64.9,1.2c0.4-1.3,0.8-2.5,1.3-3.8c3.5-8.8,8.8-22.2,18.2-21.7C736.8,1105.5,577.2,1103.6,565.5,1108.2z"/>
				<path fill="#CEB678" d="M705.1,1213c-0.3-1.2-0.6-2.5-1.4-3.3c-1.1-1.1-2.8-1.4-4.3-1.5c-16.4-1.7-33-0.7-49,3.1
					c-0.7,0.2-1.4,0.4-1.9,0.9c-0.6,0.6-0.7,1.6-0.7,2.5c-0.4,7.4,0,14.8,0.9,22.2c0.3,2.5,0.9,5.2,2.9,6.6c1.4,1,3.2,1.2,5,1.3
					c13.6,0.9,27.1,1.3,40.7,1.1c2.4,0,5-0.1,6.8-1.7c1.8-1.6,2.2-4.2,2.5-6.5C707.3,1229.3,706.8,1221.1,705.1,1213z"/>
				<g>
					<path fill="#BA9D5F" d="M705.1,1213c-0.3-1.2-0.6-2.5-1.4-3.3c-1.1-1.1-2.8-1.4-4.3-1.5c-0.5-0.1-1-0.1-1.6-0.1
						c1.5,7.7,1.9,15.6,1.1,23.4c-0.2,2.4-0.7,5-2.5,6.5c-1.8,1.6-4.4,1.7-6.8,1.7c-13.6,0.1-27.2-0.2-40.7-1.1c0,0,0,0-0.1,0
						c0.4,1.9,1.1,3.7,2.6,4.8c1.4,1,3.2,1.2,5,1.3c13.6,0.9,27.1,1.3,40.7,1.1c2.4,0,5-0.1,6.8-1.7c1.8-1.6,2.2-4.2,2.5-6.5
						C707.3,1229.4,706.8,1221.1,705.1,1213z"/>
				</g>
			</g>
		</g>
		<path fill="#FCC29A" d="M719.3,1035.3c-4.5-8.3-10.2-12.7-19.4-14.5c-0.6-5.5-1.4-11-2.1-16.6c-0.6-4.4-6.2-6.8-10.1-5.7
			c-2.4,0.7-4,2.1-4.9,3.9c-2.3,0-4.6,0.1-6.9,0.1c-0.4,0-0.9,0-1.3,0c-4.2-5.7-15.3-4.2-14.9,4.6c0.3,6,0.8,12.1,1.4,18.1
			c-6.1,0.5-11.8,4.7-14.1,10.8c-1.4,3.6-1.5,7.7-1.5,11.6c0,6.5,0.5,13,1.3,19.4c0.5,4.2,1.3,8.4,3.3,12.1c2,3.7,5.5,6.6,9.5,6.8
			c4,0.2,8.1-3.3,8-7.5c0.6,4,4.5,6.9,8.3,6.5c3.8-0.4,7-3.9,7.7-7.8c0.3,4,3.8,7.5,7.6,7.5s7.4-3.4,7.7-7.4
			c-0.9,4.7,5.7,7.9,9.6,5.4c3.9-2.5,5.2-7.9,5.3-12.7c0.1-4.8-0.1-6.6-0.1-11.2c0.3,0.1,0.6,0.1,0.9,0.1
			C725.8,1058.1,722.6,1041.2,719.3,1035.3z"/>
		<path fill="#FFFFFF" d="M1165.1,899.1c2.3,0.2,4,2.1,4,4.4c0,5.4-0.1,15.6-1.6,25.5c-1.4,9.5-4,18.8-5.6,23.8
			c-0.7,2.2-3,3.5-5.3,3l-17.2-4.1l8-54.6L1165.1,899.1z"/>
		<path fill="#512A29" d="M794.1,558.9c2.6,5.4,5.4,10.8,9.7,15c5.6,5.4,13.2,8.1,20.8,10.1c20.6,5.4,42,6.6,63.2,7.7
			c33.3,1.8,69.7,2.7,96.3-17.4c18.1-13.7,28.6-35.2,35.4-56.9c9.3-29.7-17.1-120.1-25.2-123.2c-30.4-11.6-73.4,11.2-106,11.8
			c-34.2,0.6-72.2,4.2-94.9,29.8c-14.5,16.3-19.9,39.3-18.3,61C776.7,518.5,784.7,539.3,794.1,558.9z"/>
		<path fill="#302E2D" d="M1156,894.6c-1-0.4-1.9-0.7-2.3-0.9c-2.8-1.3-5.7-2.6-8.5-4c-7-3.4-13.8-7.2-20.4-11.2
			c-6.7-4-13.1-8.4-19.3-12.9c-0.4-0.3-1.3-1-2.1-1.5c-1.1-0.9-2.1-1.7-3.2-2.6c-3.3-2.7-6.5-5.5-9.6-8.3
			c-5.8-5.2-11.2-10.7-16.5-16.4c-2.4-2.6-4.7-5.2-7-7.9c-1.4-1.6-2.7-3.2-4.1-4.9c-0.3-0.3-0.7-0.9-1.1-1.5
			c-9.8-13.1-18.3-27.2-25.7-41.8c-1.7-3.3-3.2-6.6-4.8-9.9c-0.9-2-1.8-4-2.7-6c-0.2-0.4-0.3-0.7-0.4-0.9c-3-7.4-5.8-14.8-8.4-22.4
			c-5.6-16.2-10.1-32.7-14-49.3c-7.8-32.8-13-66.1-18.1-99.4c-2.6-17.2-23.9-26.4-39.1-22.2c-18.2,5-24.9,22-22.2,39.1
			c10.9,71.1,23.4,142.5,56.8,207c33.8,65.1,91,114.2,159.1,140.4C1151.7,938.2,1153.3,916.1,1156,894.6z"/>
		<path fill="#353331" d="M1004.1,768.9c7.5-23.7,10-50.8-2.1-72.5c-5.2-9.4-12.9-17.3-17.1-27.3c-3.8-9.1-4.3-19.3-4.7-29.2
			c-0.7-16.4-1.4-32.9-2.1-49.3c-0.1-3.4-0.5-7.2-3-9.6c-1.8-1.7-4.3-2.2-6.7-2.6c-76.1-14-153.9,5.6-231.3,6.9
			c6.9,70.6,19.5,179,17.5,254.6c-7.6,45.5-26,60.6-40.1,104.6c-3.3,10.2-7.9,20.6-2.1,30.8c2.5,4.4,7.3,6.9,11.6,9
			c5.9,2.9,11.9,5.4,18,7.8c22.7,8.8,47.3,13.2,71.6,13.6c1.9,0,3.5-0.4,4.8-1.1c36,2.3,72.3,1.3,108.2-1.9
			c8.7-0.8,17.4-1.7,26.1-2.8c0.4-0.1,0.8-0.1,1-0.1c0,0,0,0,0.1,0c0.9-0.1,1.9-0.3,2.8-0.4c1.8-0.3,3.6-0.5,5.4-0.8
			c3.3-0.5,6.6-1.1,9.9-1.7c5.6-1.1,11.3-2.2,16.8-3.8c2.1-0.6,4.2-1.2,6.3-2c0.7-0.3,0.5-0.2-0.6,0.1c0.6-0.3,1.3-0.7,1.9-1
			c1.4-0.7,2.8-1.4,4.2-2.2c-10.8-40.1-20.1-80.6-27.8-121.5c1-9.4,2.7-18.7,5.3-27.9C984.5,814.7,996.6,792.6,1004.1,768.9z"/>
		<path fill="#3A3836" d="M883.5,1001.8c14.4-0.5,28.8-1.4,43.1-2.7c8.7-0.8,17.4-1.7,26.1-2.8c0.4-0.1,0.8-0.1,1-0.1c0,0,0,0,0.1,0
			c0.9-0.1,1.9-0.3,2.8-0.4c1.8-0.3,3.6-0.5,5.4-0.8c3.3-0.5,6.6-1.1,9.9-1.7c5.6-1.1,11.3-2.2,16.8-3.8c2.1-0.6,4.2-1.2,6.3-2
			c0.7-0.3,0.5-0.2-0.6,0.1c0.6-0.3,1.3-0.7,1.9-1c1.4-0.7,2.8-1.4,4.2-2.2c-10.8-40.1-20.1-80.6-27.8-121.5
			c1-9.4,2.7-18.7,5.3-27.9c6.6-24,18.7-46.1,26.2-69.8c7.5-23.7,10-50.8-2.1-72.5c-5.2-9.4-12.9-17.3-17.1-27.3
			c-3.8-9.1-4.3-19.3-4.7-29.2c-0.7-16.4-1.4-32.9-2.1-49.3c-0.1-3.4-0.5-7.2-3-9.6c-1.8-1.7-4.3-2.2-6.7-2.6
			c-11.7-2.2-23.4-3.5-35.2-4.3c-0.8,2.8-1.6,5.5-2.3,8.3c-5.1,18.6-9.9,37.3-14.8,55.9c-4.8,18.3-10.9,36.6-14.9,55.1
			c-7.7,35.4-6.6,71.9-5.5,107.9c1.2,36.3,0.7,72.1-2.2,108.3C891.1,938,887.4,969.9,883.5,1001.8z"/>
		<path fill="#302E2D" d="M949.9,596.3c-3.5-6.2-7.4-12.3-11.6-18.1c-2.4-3.3-5-6.6-8.5-8.7c-5.9,1.1-12.9,0.2-18.4,0.2
			c-16.6-0.2-33.5,1.6-50.1,2.9c-13.8,1-27.7,0.6-41.5,1.7c-0.1,0-0.3,0.1-0.4,0.1c-0.3,0.1-0.5,0.1-0.7,0.1
			c-1.8,1.4-3.4,3.1-4.9,4.8c-6.4,7.1-12.2,14.8-17.1,23c-0.8,1.4-1.7,2.9-1.5,4.5c0.2,1.8,1.6,3.1,2.9,4.3
			c27.1,24.5,55,48,83.8,70.5c5,3.9,10.1,7.8,16.1,10.2c22.6-20.9,40.8-46.4,53.2-74.5c1.3-2.9,2.5-5.8,2.6-9
			C954.1,604.1,952,600.1,949.9,596.3z"/>
		<path fill="#FFFFFF" d="M704.3,1005.6c0.1,2.3-1.4,4.3-3.5,4.6c-5,0.8-14.3,2.1-23.6,2.1c-8.9,0-17.7-1.3-22.6-2.1
			c-2.1-0.4-3.7-2.5-3.5-4.8l1.4-17.6h51L704.3,1005.6z"/>
		<path fill="#EFB58E" d="M857.6,632c18,29.5,34.9,58.8,35.9,60c0.6,0.7,1.7,0.6,2.1-0.1c0,0,0,0,0,0c1.1-1.8,12.6-34.1,21.1-65.2
			c7.1-25.8,11.7-50.7,11.9-56.4c0-0.7-0.5-1.3-1.2-1.4c-35.3-3-69.7,0.4-105.6,5.9C821.5,574.9,840.2,603.5,857.6,632z"/>
		<path fill="#EFB58E" d="M911.4,615.5c0.1-0.1,0.2-0.2,0.3-0.2c0-0.1,0.1-0.2,0.2-0.4c0.4-0.8,0.5-1,0.4-0.7
			c0.6-1.7,1.2-3.5,1.6-5.2c0.8-3.2,1.5-6.5,2.3-9.7c1.6-7.3,3.5-14.4,4.9-21.7c0.2-2.7,0.3-5.4,0.8-7.9c-5.5-0.5-11.1-1.1-16.6-1
			l1.2-27.7l-58.7-2.6l-1.5,34.5c-4.7,0.3-9.4,0.7-14.1,1.1c2.1,5.1,3.8,10.9,4.4,16.6c1.9,6,4.2,11.8,7.3,17.4
			c18.1,15.3,37.8,29.8,49.4,36.2c0.1-0.2,0.3-0.4,0.4-0.5c5.9-4.9,11.6-11.5,16.8-18.7C908.5,622,908.2,618.4,911.4,615.5z"/>
		<path fill="#302E2D" d="M767,603.3c-0.5-1-1-2.1-1.6-3.1c-5.4-9.7-16.1-20.4-27.7-19c-2.8,0.3-5.4,1-7.7,2.3
			c-12.6,7.1-15.1,25.3-18.9,37.9c-5.3,17.8-10.2,35.8-14.9,53.8c-9.3,36-17.5,72.3-24.4,108.9c-13.2,69.8-21.9,140.4-26.3,211.4
			c0,0.3,0,0.5,0,0.8c13.1,2.1,26.6,2.3,39.8,2.1c7.9-0.1,15.8-0.3,23.7-0.6c0.1-0.8,0.2-1.5,0.2-2.3c2-32.2,4.9-64.3,8.7-96.4
			c0.4-3.4,0.8-6.7,1.2-10.1c0.2-1.2,0.9-7.1,1.2-9c1-7.7,2.2-15.3,3.3-22.9c2.4-15.9,5.1-31.9,8-47.7
			c6.6-36.4,14.5-72.7,23.7-108.6c4.5-17.6,8.9-35.3,14.4-52.5C774.3,633.5,773.3,617.2,767,603.3z"/>
		<path fill="#663B39" d="M783.4,227.3c-6.3,1.7-19.3-2.9-41,11.8c-25.6,17.4-37.2,55.7-45.6,88.2c-16.4,63.2-10,134.8,3.5,195.7
			c7,31.5,25.1,102.1,70.3,94.4c-5.5-14.1-6.3-29.9-2.1-44.5c-3.2,15.8,7.2,32.5,21.9,39.1c14.7,6.6,32.4,4.2,46.6-3.6
			c-47.2-96.6-57.4-210.8-28.1-314.3c4-14.1,8.8-28.8,5.8-43.2C811.7,236.7,797.5,223.4,783.4,227.3z"/>
		<path fill="#E29C6E" d="M847.8,538.2c0,0-1.1,23.9-1.1,23.9c-0.2,4.4,27.3,5.4,30.3,5.5c3.9,0,28.3-1.4,28.3-2.8
			c0,0,1.1-24,1.1-24L847.8,538.2z"/>
		<g>
			<path fill="#FCC29A" d="M996,336.1c-31.6-38.8-77-65.1-126.9-67.4c-28.5-1.3-58,2.7-82.4,18c-10.9,6.9-21.7,16.1-28.8,26.6
				C751,323.5,746.1,335,745,346c-0.3,2.7-1.1,5.3-2.4,7.4c-2.1,51.9,11.8,105.6,26.6,135.2c50.4,101.3,211.9,80.5,225.7-30
				c2.7-21.4,1.6-39.2,0.5-47.1C992.7,391.3,996.2,372.5,996,336.1z"/>
			
				<ellipse transform="matrix(0.999 -4.509625e-002 4.509625e-002 0.999 -19.4136 37.2014)" fill="#F7A299" cx="814.8" cy="448.9" rx="23.6" ry="15.6"/>
			
				<ellipse transform="matrix(0.999 -4.509625e-002 4.509625e-002 0.999 -19.1463 44.4186)" fill="#F7A299" cx="974.9" cy="446.6" rx="20.2" ry="13.4"/>
			<circle fill="#FCC29A" cx="738.6" cy="425.8" r="34.5"/>
			<path fill="#E39A6A" d="M908.1,428.1c-0.2-3.1-5.1-3.1-4.8,0c0.4,5.3,2.9,9.6,6.1,13.7c3,3.8,7.1,7.6,7.6,12.6
				c1,8.9-12.5,8.1-18.1,8.1c-3.1,0-3.1,4.9,0,4.8c7.8-0.1,20.9,0.2,22.8-9.7C924.1,445.3,908.8,439.5,908.1,428.1z"/>
			<g>
				<ellipse fill="#543324" cx="839.5" cy="404.2" rx="14.8" ry="18.2"/>
				<circle fill="#FFFFFF" cx="846.8" cy="403.9" r="4.1"/>
				<path fill="#543324" d="M847.7,385.9c-3.9-2-8.7-1.6-12.8-0.7c-3.7,0.7-6.7,2.4-9.7,4.6c-2.3,1.7-8.3,6.9-11.1,4.2
					c-1.6-1.5-4.1,0.4-3,2.3c4.9,8.2,15.7-1.3,21.1-3.8c2.4-1.2,6.5-1.6,9.6-1.5c1.4,0.1,2.7,0.4,3.9,1.2c1.1,0.7,0.8,3,1.6,4
					c1,1.3,2.9,1.9,4.2,0.5C854.6,393.1,851.2,387.6,847.7,385.9z"/>
			</g>
			<g>
				<ellipse fill="#543324" cx="954.7" cy="400.9" rx="14" ry="17.3"/>
				<circle fill="#FFFFFF" cx="961.6" cy="400.9" r="3.9"/>
				<path fill="#543324" d="M960.9,384.1c-2.5-1.6-5.9-1.8-8.8-1.7c-3.2,0.2-6.1,0.9-8.8,2.6c-1.6,0.9-3.1,2.1-4.6,3.1
					c-1.4,0.9-2.6,1.2-4.2,1.7c-1.6,0.5-2.1,2.9-0.5,3.8c5,2.7,10.7-3.7,15.4-4.7c2-0.4,4.3-0.5,6.3-0.2c1,0.2,2,0.5,2.7,1.1
					c1,0.9,1.1,2.1,2.4,2.8c1.2,0.6,3,0.4,3.7-1C965.9,388.5,963.4,385.7,960.9,384.1z"/>
			</g>
			<path fill="#FFFFFF" d="M916.2,487.4l-73.6,0c-3.3,0-5.5,3.4-4.2,6.4c2.1,4.6,5.1,10.7,8.5,15.2c12.3,16.7,42,20.8,60.6,7.6
				c8.5-6,11.8-13.3,14.1-22.1C922.6,490.9,919.9,487.4,916.2,487.4z"/>
		</g>
		<path fill="#FFFFFF" d="M884.4,637.4c-7.8-0.3-15.5,0.1-23.3,0.4c16.6,27.4,31.4,53,32.3,54.2c0.6,0.7,1.7,0.6,2.1-0.1
			c0,0,0,0,0,0c1-1.6,10-26.9,18-54.1C903.9,638.1,894.2,637.8,884.4,637.4z"/>
		<circle fill="#302E2D" cx="891.4" cy="725.2" r="12.2"/>
		<circle fill="#302E2D" cx="896.5" cy="771.9" r="12.2"/>
		<path fill="#663B39" d="M1060.9,467.7c-3-48.5-16.6-95.8-34-141.2c-8.5-22.1-18-44.1-32.1-63.2c-40.6-54.8-118-82.8-181.1-56.9
			c-17,7-34.8,23-47.2,36.5c-9.4,10.2-16.7,22.2-22,35c-15.4,37.2-14.4,91.5,4.9,126.9c35.2-29,60.2-81.7,66.3-126.8
			c26.8,23.6,55.8,44.5,86.5,62.6c11.6,6.8,23.5,13.3,35,20.4c-1,0.3-2,0.7-2.9,1.3c-3,2-2.4,6.3,1,7.5c3.1,1.1,6.4,0.4,9.7,0.3
			c2,0,4.1,0,6.1,0c4,2.8,7.9,5.8,11.7,9c28.8,24.3,48.2,59.5,53.3,96.9s-4.1,76.5-25.3,107.6c12.9,0.1,25.6-7.7,31.2-19.4
			c3,18.1,0.9,37.1-6.1,54.1c6.2,3.6,13.1-3.4,16.5-9.7C1055.9,566.1,1063.9,516.2,1060.9,467.7z"/>
	</g>
	<g>
		<g>
			<path fill="#42413F" d="M1469.8,1575c-1.1-10.1-2.7-18.3-9-25.8c-5.8-6.8-13.7-10.7-21.8-10.7c-8.2,0-16.1,3.9-21.8,10.7
				c-5.1,6.1-10,16.8-9,25.8c2,18.1,2.9,36.4,2.5,54.6c-0.4,19.9,14.3,36.5,30.9,36.5c17.1,0,30.5-16.6,30.9-36.5
				C1472.7,1611.4,1471.8,1593.2,1469.8,1575z"/>
			<path fill="#302E2D" d="M1378.4,1654.4c8.8-8.4,15.3-18.4,23.2-27.5c1.2-1.4,2.6-2.9,4.5-3.3c2.1-0.5,4.3,0.3,6.3,1
				c17.1,5.8,36.6,5.8,53.6-0.2c2.5-0.9,5.2-1.9,7.8-1.4c4.6,0.9,6.5,5.6,7.6,9.7c6.9,26.6,9.9,53.9,8.9,81.2
				c-20,2.8-40.3,3.5-60.5,2.1c-0.2-4.3-0.3-8.6-0.5-12.9c-29.6,16.2-64.1,25.2-98.8,25.8c-7.5,0.1-15.6-0.3-21.7-4.2
				c-10-6.3-11.1-18.9-11.2-29.7c-0.1-5.4,0.3-11.7,5.2-14.9c3.8-2.5,9-2.2,13.8-2.2C1339.6,1678.1,1362.6,1669.4,1378.4,1654.4z"/>
		</g>
		<g>
			<path fill="#42413F" d="M1676.2,1571.1c-2.5-9.9-5.2-17.7-12.6-24.3c-6.7-5.9-15.1-8.7-23.1-7.5c-8.1,1.1-15.4,6.1-20.1,13.7
				c-4.2,6.7-7.6,18.1-5.3,26.8c4.5,17.7,7.9,35.6,10.2,53.7c2.4,19.8,19.3,34.1,35.7,31.8c16.9-2.4,27.9-20.7,25.5-40.5
				C1684.2,1606.7,1680.8,1588.8,1676.2,1571.1z"/>
			<path fill="#302E2D" d="M1588.9,1654.4c8.8-8.4,15.3-18.4,23.2-27.5c1.2-1.4,2.6-2.9,4.5-3.3c2.1-0.5,4.3,0.3,6.3,1
				c17.1,5.8,36.6,5.8,53.6-0.2c2.5-0.9,5.2-1.9,7.8-1.4c4.6,0.9,6.5,5.6,7.6,9.7c6.9,26.6,9.9,53.9,8.9,81.2
				c-20,2.8-40.3,3.5-60.5,2.1c-0.2-4.3-0.3-8.6-0.5-12.9c-29.6,16.2-64.1,25.2-98.8,25.8c-7.5,0.1-15.6-0.3-21.7-4.2
				c-10-6.3-11.1-18.9-11.2-29.7c-0.1-5.4,0.3-11.7,5.2-14.9c3.8-2.5,9-2.2,13.8-2.2C1550.2,1678.1,1573.2,1669.4,1588.9,1654.4z"/>
		</g>
		<g>
			<g>
				<path fill="#501E10" d="M1384.9,1073c-11.2-14.3-28.2-21.8-46.3-18.8c-16.1,2.6-33.8,7.7-47.5,16.6
					c-16.2,10.6-22.8,27.8-24.7,46.3c-0.5,5.2,4.7,9.5,9.5,9.5c5.6,0,9-4.4,9.5-9.5c1.3-12.6,5.9-23.7,16.7-30.8
					c10.9-7.1,24.9-10.2,37.4-13c12.6-2.8,22.7,2.2,30.7,11.8c9.1,10.8,10.4,27,10.6,40.4c0.1,12.3,19.2,12.3,19,0
					C1399.8,1107,1396.6,1087.9,1384.9,1073z"/>
				<path fill="#501E10" d="M1494.7,1278.8c6.8-36.4,2.7-76.8-3.6-113.1c-3-17.3-4.4-38.2-11.4-54.5c-0.8-1.6-1.8-3.1-2.7-4.6
					c-10.6-0.6-33.8,0.1-63.4,1.5c-5.9,0.3-12.2,0.6-18.6,1c-1.6,0.1-3.2,0.2-4.8,0.3c-3.3,0.2-6.6,0.4-9.9,0.6
					c-3.3,0.2-6.7,0.4-10.2,0.6c-6.8,0.4-13.8,0.9-20.9,1.4c-1.8,0.1-3.5,0.2-5.3,0.4c-3.6,0.2-7.1,0.5-10.7,0.8
					c-3.6,0.3-7.2,0.5-10.8,0.8c-7.2,0.5-14.5,1.1-21.7,1.6c-30.7,2.4-61.1,5.1-87.1,7.8c0.7-0.1,1.3-0.1,2,0
					c-0.7,0.1-1.3,0.2-1.9,0.3c-1.5,0.4-2.8,1-3.9,2c-0.3,0.3-0.6,0.6-0.9,1c-0.1,0.2-0.3,0.4-0.4,0.6c-0.1,0.1-0.1,0.3-0.2,0.5
					c-0.1,0.3-0.1,0.6-0.2,1c-0.2,1.2-0.4,3-0.7,5.4c-0.1,1.2-0.2,2.5-0.4,3.9c0,0.5-0.1,1-0.1,1.5c-0.2,2.5-0.4,5.4-0.6,8.5
					c0,0.6-0.1,1.3-0.1,1.9c-1.8,28.2-3.6,75.5-2.7,100c0,0.6,0,1.2,0.1,1.9c0,0.2,0,0.4,0,0.7c0,0.4,0,0.9,0,1.3c0,0.3,0,0.5,0,0.8
					c0,0.4,0,0.8,0,1.3c0,0.2,0,0.5,0,0.7c0,0.8,0,1.6,0,2.4c0,0.7,0,1.5,0,2.3c0,0.3,0,0.5,0,0.8c0,0.5,0,0.9,0,1.4
					c0,0.3,0,0.6,0,0.9c0,0.4,0,0.9,0,1.4c0,0.3,0,0.6,0,0.9c0,0.5,0,0.9,0,1.4c0,0.3,0,0.6,0,0.9c0,0.5,0,0.9,0,1.4
					c0,0.3,0,0.6,0,1c0,0.5,0,0.9,0.1,1.4c0,0.3,0,0.6,0,0.9c0,0.5,0.1,0.9,0.1,1.4c0,0.3,0,0.6,0.1,0.9c0,0.5,0.1,1,0.1,1.5
					c0,0.3,0,0.6,0.1,0.8c0,0.5,0.1,1,0.1,1.5c0,0.2,0.1,0.5,0.1,0.7c0.1,0.5,0.1,1.1,0.2,1.6c0,0.1,0,0.2,0,0.4
					c0.3,2.1,0.6,4.1,1,6.1c0,0.1,0,0.2,0.1,0.3c0.1,0.5,0.2,1,0.4,1.6c0.1,0.2,0.1,0.4,0.2,0.7c0.1,0.5,0.2,1,0.4,1.4
					c0.1,0.3,0.1,0.5,0.2,0.8c0.1,0.5,0.3,0.9,0.4,1.3c0.1,0.3,0.2,0.5,0.3,0.8c0.1,0.4,0.3,0.8,0.5,1.3c0.1,0.3,0.2,0.5,0.3,0.8
					c0.2,0.4,0.3,0.8,0.5,1.2c0.1,0.3,0.2,0.5,0.3,0.8c0.2,0.4,0.4,0.8,0.6,1.2c0.1,0.3,0.3,0.5,0.4,0.8c0.2,0.4,0.4,0.7,0.6,1.1
					c0.1,0.2,0.3,0.5,0.4,0.7c0.2,0.4,0.4,0.7,0.7,1.1c0.2,0.2,0.3,0.5,0.5,0.7c0.2,0.3,0.5,0.7,0.7,1c0.2,0.2,0.4,0.4,0.5,0.7
					c0.3,0.3,0.5,0.6,0.8,0.9c0.2,0.2,0.4,0.4,0.6,0.6c0.3,0.3,0.6,0.6,0.9,0.9c0.2,0.2,0.4,0.4,0.6,0.5c0.3,0.3,0.6,0.6,1,0.8
					c0.2,0.2,0.4,0.3,0.6,0.5c0.4,0.3,0.7,0.5,1.1,0.8c0.2,0.1,0.4,0.2,0.6,0.4c0.4,0.3,0.8,0.5,1.3,0.8c1.3,0.7,2.7,1.3,4.2,1.8
					c7,2.4,14.4,3,21.8,3.4c24.8,1.5,163.8,0.5,228.5-14.8c9.4-2.2,14.8-6.3,16.7-13.7C1493.2,1286.1,1494,1282.5,1494.7,1278.8z
					 M1203.7,1258.9c0-0.8,0-1.5,0-2.3c0,0,0,0.1,0,0.1C1203.7,1257.4,1203.7,1258.1,1203.7,1258.9z"/>
			</g>
			<path fill="#FCC29A" d="M1364.7,1041.1c-4.5-8.3-10.2-12.7-19.4-14.5c-0.6-5.5-1.4-11-2.1-16.6c-0.6-4.4-6.2-6.8-10.1-5.7
				c-2.4,0.7-4,2.1-4.9,3.9c-2.3,0-4.6,0.1-6.9,0.1c-0.4,0-0.9,0-1.3,0c-4.2-5.7-15.3-4.2-14.9,4.6c0.3,6,0.8,12.1,1.4,18.1
				c-6.1,0.5-11.8,4.7-14.1,10.8c-1.4,3.6-1.5,7.7-1.5,11.6c0,6.5,0.5,13,1.3,19.4c0.5,4.2,1.3,8.4,3.3,12.1c2,3.7,5.5,6.6,9.5,6.8
				c4,0.2,8.1-3.3,8-7.5c0.6,4,4.5,6.9,8.3,6.5c3.8-0.4,7-3.9,7.7-7.8c0.3,4,3.8,7.5,7.6,7.5c3.8,0,7.4-3.4,7.7-7.4
				c-0.9,4.7,5.7,7.9,9.6,5.4c3.9-2.5,5.2-7.9,5.3-12.7c0.1-4.8-0.1-6.6-0.1-11.2c0.3,0.1,0.6,0.1,0.9,0.1
				C1371.1,1063.9,1367.9,1047,1364.7,1041.1z"/>
			<path fill="#FFFFFF" d="M1349.6,1011.4c0.1,2.3-1.4,4.3-3.5,4.6c-5,0.8-14.3,2.1-23.6,2.1c-8.9,0-17.7-1.3-22.6-2.1
				c-2.1-0.4-3.7-2.5-3.5-4.8l1.4-17.6h51L1349.6,1011.4z"/>
			<path fill="#302E2D" d="M1412.3,609.1c-0.5-1-1-2.1-1.6-3.1c-5.4-9.7-16.1-20.4-27.7-19c-2.8,0.3-5.4,1-7.7,2.3
				c-12.6,7.1-15.1,25.3-18.9,37.9c-5.3,17.8-10.2,35.8-14.9,53.8c-9.3,36-17.5,72.3-24.4,108.9c-13.2,69.8-21.9,140.4-26.3,211.4
				c0,0.3,0,0.5,0,0.8c13.1,2.1,26.6,2.3,39.8,2.1c7.9-0.1,15.8-0.3,23.7-0.6c0.1-0.8,0.2-1.5,0.2-2.3c2-32.2,4.9-64.3,8.7-96.4
				c0.4-3.4,0.8-6.7,1.2-10.1c0.2-1.2,0.9-7.1,1.2-9c1-7.7,2.2-15.3,3.3-22.9c2.4-15.9,5.1-31.9,8-47.7
				c6.6-36.4,14.5-72.7,23.7-108.6c4.5-17.6,8.9-35.3,14.4-52.5C1419.6,639.3,1418.6,623,1412.3,609.1z"/>
		</g>
		<path fill="#302E2D" d="M1601.7,1588.3c10.1-0.4,20.2-1.2,30.2-2.4c18.4-2.8,36.4-7.2,53.9-13.2c-0.1-1-0.3-2.1-0.5-3.2
			c-13.5-76.8-25.4-153.9-35.9-231.2c-14.1-105.8-25.4-211.9-33.8-318.3c-0.9-11.7-4-21.9-12.6-30.4c-2.2-2.2-4.6-4.1-7.2-5.8
			c-2-3.9-4.6-7.5-7.8-10.7c-7.3-7.3-19.7-13.7-30.4-12.6c-42,4.4-84.1,8.7-126.1,13.1c-8.9,0.9-16.8,2.7-23.8,7.2
			c-19,4.4-33.7,21.7-33.6,41.9c0.8,132.8,5,265.5,12.6,398.1c3.1,54.3,6.8,108.7,11.1,162.9c0.3,3.7,0.8,7.3,1.6,10.7
			c0.4,0.2,0.7,0.4,1.1,0.5c0.6,0.3,1.2,0.6,1.8,0.9c4.2,1.4,8.4,2.5,12.8,3.2c17.4,1.6,34.9,0.2,52.2-2c5.2-0.7,10.4-1.5,15.6-2.3
			c0.9-3.6,1.3-7.3,1-11.1c-10.4-132.4-17.5-265-21.1-397.7c-0.6-23.4-1.1-46.8-1.6-70.3c12,1.1,24,1.6,36.1,1
			c13.4-0.6,26.9-2.2,40.3-4.6c9.8,103.2,22.3,206.2,37.2,308.9C1583.1,1476.9,1592,1532.7,1601.7,1588.3z"/>
		<path fill="#583013" d="M1320.6,368.1c0.3-1.9,0.7-3.9,1-5.8c0.3,2.5,0.7,5.1,1.2,7.6C1322.1,369.2,1321.3,368.6,1320.6,368.1z"/>
		<path fill="#383635" d="M1649.6,1014c-17.2-73.5-15.1-89.6-20.3-164.5c-0.2-64,2.1-171.5,1.9-235.6c-0.1-24.8-24.9-36.5-32.8-38
			c-42.7-7.7-79.9-5.1-116.9-6.9c-9.7-0.5-5.3-2.2-28.7-1.1c-32.8,1.7-84,10.8-83.1,29.6c2.8,70.7,2.7,141.5-0.2,212.2
			c-2.9,70-9,143.9-17.3,210.5c-1.6,12.6,4.4,23.7,16.7,24.3c99.3,5.4,170.2,11.6,268.7-7.1
			C1646.9,1035.8,1651.7,1023.3,1649.6,1014z"/>
		<path fill="#524947" d="M1432.8,569c-17.6,35.8-25.4,76.3-22.5,116.1c10.7,0.5,21.4-0.1,31.9-1.7c-6.7,8.6-15.2,15.8-24.7,21
			c6.8,21.4,14.3,42.7,25.8,62c11.5,19.3,27.3,36.5,47.3,46.6c2.2,1.1,4.8,2.2,7.1,1.4c1.4-0.5,2.5-1.5,3.5-2.5
			c9.2-9.2,15.7-20.6,22.2-31.9c15.5-27.2,31.3-55,38.4-85.5c2.1-8.9,3.4-17.9,4.7-26.9c2.4-16.9,4.9-33.9,3.5-50.8
			c-1.3-17-6.8-34.1-18.2-46.7c-32.6-1.6-65.2-1.1-97.7,1.4C1446.8,571.9,1439.1,572.5,1432.8,569z"/>
		<path fill="#FFFFFF" d="M1489.2,807c-0.3,0.3-20.3-58.2-33.2-117.2c-12.7-58.1-22.7-120.3-22-120.4c35.3-3,81.1-5.1,117,0.3
			C1557.7,570.8,1490.2,805.8,1489.2,807z"/>
		<g>
			<path fill="#D12F3D" d="M1489.2,807c0.4-0.5,11.9-39.9,24.9-86.5c-3.6-28-11.3-85.9-13.4-92.8c8.5-5.7,10.7-18.1,12.1-28.2
				c0.1-0.9,0.2-0.9-0.1-1.8c-0.5-1.2-1.7-1.8-2.8-2.4c-9.9-4.6-21.5-5.3-31.9-2.1c-5.1,1.6-10.3,4.5-12,9.5
				c-1.6,4.4,0.5,4.4,2.4,8.7c2.5,5.5,6.1,13.2,10.7,17c-2.8,17.1-9.3,68.3-13.3,101.6C1477.1,772.7,1489,807.3,1489.2,807z"/>
		</g>
		<path fill="#DEDDDD" d="M1460.8,633.6c5.2-12.3,14.6-22.9,26.2-29.6c1.4-0.8,2.8-1.5,4.4-1.5c2.4,0.1,4.3,2,5.9,3.9
			c5.7,7.1,11,18.4,13.5,27.2c9.9-4.3,19-11,22.9-20c3.4-7.7,8.7-14.7,10.4-22.9c1.3-6.5-21.8-25-24.3-25.8
			c-2.6-0.9-5.5-0.5-8.2-0.2c-12.7,1.7-25.4,3.3-38.2,5c-3.5,0.5-7.4,0.8-10.3-1.2c-8.5,6.4-15.8,14.1-21.8,22.9
			c-4.5,6.6,1,14.9,4.4,21.1C1449.7,620.2,1454.8,627.3,1460.8,633.6z"/>
		<path fill="#FFFFFF" d="M1460.8,624.2c5.2-12.3,14.6-22.9,26.2-29.6c1.4-0.8,2.8-1.5,4.4-1.5c2.4,0.1,4.3,2,5.9,3.9
			c5.7,7.1,11,18.4,13.5,27.2c9.9-4.3,19-11,22.9-20c3.4-7.7,8.7-14.7,10.4-22.9c1.3-6.5-21.8-25-24.3-25.8
			c-2.6-0.9-5.5-0.5-8.2-0.2c-12.7,1.7-25.4,3.3-38.2,5c-3.5,0.5-7.4,0.8-10.3-1.2c-8.5,6.4-15.8,14.1-21.8,22.9
			c-4.5,6.6,1,14.9,4.4,21.1C1449.7,610.8,1454.8,617.9,1460.8,624.2z"/>
		<path fill="#EFB58E" d="M1464.1,565.6c0.6,6.7,1.5,13.5,6.5,18.2c6.1,5.7,15,7.5,23.2,7.3c7.9-0.3,16.4-2.3,21.7-8.6
			c6.4-7.7,6.9-13.9,7-23.4c0-1.6-0.8-23.9-1.1-23.9c0,0-58.7,2.6-58.7,2.6c-1.1,2.4,0.1,9,0.4,11.6
			C1463.5,552.7,1463.8,561.6,1464.1,565.6z"/>
		<path fill="#E29C6E" d="M1521.4,535.1c0,0,1.1,23.9,1.1,23.9c0.2,4.4-27.3,5.4-30.3,5.5c-3.9,0-28.3-1.4-28.3-2.8
			c0,0-1.1-24-1.1-24L1521.4,535.1z"/>
		<path fill="#EDAC80" d="M1194.3,927.5c-0.5,0.5-1,1.1-1.1,1.8c-0.8,2.8,3.7,4.2,6.8,3.7c6.1-1,11.7-3.9,15.7-8.2
			c1.5,8.4,8.2,15.3,15.8,20.1c2.4,1.5,7.5,1.4,10.1,4.7c2.6,3.3-1.4,9.1,1.3,9.9c8.2,2.5,22.4,2.3,31,1.5c0.5,0-0.2-6.4,0.2-6.7
			c0.4-0.3,0.5-0.9,0.6-1.4c1.4-9.1,1.2-18.4-0.6-27.4c-6.8,0.6-13.6,1.2-20.4,1.8c-1,0.1-2.1,0.2-3.1-0.1c-1.3-0.4-2.4-1.3-3.4-2.2
			c-9-7.8-20.9-12.7-33.2-13.6c-1.8-0.1-3.8-0.2-5.3,0.7c-0.9,0.5-1.6,1.3-2.3,2C1202.2,918.6,1198.2,923.1,1194.3,927.5z"/>
		<path fill="#EDAC80" d="M1222.9,952.5c-2-0.3-3.7-0.5-5.4-0.3c-1.5-2-4.7-3.2-8-3.1c-0.3-0.9-0.8-1.6-2-2.1
			c-2.6-1.1-6-1.8-9.1-1.3c-2.3,0.4-4.2,1.1-5.9,2.1c-0.9,0-1.8,0.2-2.6,0.6c-6.9,3.6-13.4,7.5-15.4,13.3c-0.5,1.6,1.2,3.3,3.9,3.3
			c1.3,0,2.4-0.1,3.5-0.3c1.4,2.3,4.5,3.6,8.3,3.1c1.5,2.5,5.2,3.7,9.2,2.8c1.9,2.5,5.7,3.9,10.9,2.1c3.7-1.3,7-5.4,9.2-7.6
			c3-2.9,5.2-6.1,6.3-9.5C1226.2,954.3,1225.1,952.9,1222.9,952.5z"/>
		<g>
			<path fill="#FFFFFF" d="M1272.6,908.5c-2.8-0.2-5.3,1.5-5.9,4c-1.3,5.9-3.3,17-3.8,28c-0.4,10.6,0.7,21.2,1.5,27
				c0.4,2.6,2.9,4.4,5.8,4.3l21.9-1l2.4-60.8L1272.6,908.5z"/>
			<path fill="#302E2D" d="M1284.7,905.5c1.3-0.2,2.4-0.4,3.1-0.5c3.8-0.8,7.5-1.7,11.2-2.6c9.3-2.3,18.4-5,27.4-8
				c9-3,17.8-6.5,26.5-10.2c0.6-0.3,1.8-0.8,2.9-1.3c1.5-0.7,3-1.4,4.5-2.1c4.6-2.2,9.1-4.6,13.6-7.1c8.2-4.5,16.1-9.4,23.8-14.5
				c3.5-2.3,6.9-4.7,10.3-7.2c2-1.5,4-3,6-4.5c0.4-0.3,1-0.8,1.7-1.3c14.9-12.2,28.4-25.8,40.7-40.2c2.8-3.2,5.4-6.5,8.1-9.8
				c1.6-2,3.1-4,4.7-6c0.3-0.4,0.5-0.7,0.7-0.9c5.4-7.4,10.4-14.9,15.2-22.6c10.4-16.4,19.6-33.4,28.1-50.7
				c16.8-34,35.4-81.4,49.1-116.4c7.1-18.1,35.1-23.9,52.7-16.3c21,9,25.4,28.8,18.3,46.9c-29.3,74.9-65.2,162.2-120.4,225.4
				c-55.7,63.8-136.5,105.7-225.4,120.5C1280.3,953.6,1283.2,929.3,1284.7,905.5z"/>
		</g>
		<g>
			<path fill="#663B39" d="M1639.7,261.4c-4.5-13.2-16-30.3-29.8-26.8c-3.9,1-8.2,2.1-10.6,4.5c0,0-4.8-6.2-7.1-9.7
				c-16-23.3-48.4-31.1-76.9-35.4c-28.6-4.3-57.8-5.3-86.7-3c1.2,7.5,4.9,14.5,10.5,19.9c-28.3-4.9-57.6-3.8-85.4,3.3
				c10.5,7,21,13.9,31.6,20.9c-16.2,2.9-31.4,11-43,22.4c4.2,3.8,11.1,3.8,16.5,3.7c1.9,0,3.8-0.1,5.7-0.2c-0.2,0.7-0.4,1.5-0.5,2.3
				c-4.7,40.3-6.1,80.9-4.2,121.4c0.5,9.6,12.2,12.6,17.4,6c3-0.2,5.4-1.4,6.4-4.9c3.3-12.6-1.7-52.2,0.7-65.9
				c1.6-8.7,5.8-12.3,11.6-19.1c7.9-9.2,12.2-25.9,24.4-27.6c36.8-5.1,73.9-8.2,111.1-9.4c16.8-0.5,34.4-0.4,49,7.6
				c18,9.9,27.6,29.9,32.3,49.4c4.7,19.6,5.7,40,12.3,59.1c2.2,6.4,7.6,13.9,14.2,11.7c4.5-1.4,6.3-6.6,7.3-11.1
				C1655.1,341.2,1652.8,299.6,1639.7,261.4z"/>
			<g>
				<path fill="#FCC29A" d="M1624.6,434.7c4.1-25.3,4.5-51.6,4-76c-0.6-24.4-7.3-47.7-24.6-65.6c-32.7-34-85.9-33.5-129.3-28.6
					c-34.5,3.9-77.1,7-90.7,50.8c-11,35.7-5.4,73.9-8.3,94.6c-1.1,8.1-2.2,26.3,0.6,48.4c14.1,113.5,180,134.9,231.7,30.9
					C1616.3,472.4,1621.5,453.9,1624.6,434.7z"/>
				<circle fill="#FCC29A" cx="1625" cy="421.1" r="35.5"/>
				<circle fill="#FCC29A" cx="1391.8" cy="406.2" r="35.5"/>
				<path fill="#E39A6A" d="M1465.4,427c0.2-3.2,5.2-3.2,5,0c-0.4,5.5-3,9.8-6.3,14c-3.1,3.9-7.3,7.8-7.8,13
					c-1,9.1,12.8,8.3,18.6,8.3c3.2,0,3.2,5,0,5c-8-0.1-21.4,0.2-23.4-10C1448.9,444.7,1464.6,438.7,1465.4,427z"/>
				<g>
					<ellipse fill="#543324" cx="1535.8" cy="402.4" rx="15.2" ry="18.7"/>
					<circle fill="#FFFFFF" cx="1528.2" cy="402.1" r="4.2"/>
				</g>
				<g>
					<ellipse fill="#543324" cx="1417.5" cy="399.1" rx="14.4" ry="17.7"/>
					<circle fill="#FFFFFF" cx="1410.4" cy="399.1" r="4"/>
				</g>
				<path fill="#FFFFFF" d="M1457.1,487.9l75.6,0c3.4,0,5.7,3.5,4.3,6.6c-2.1,4.7-5.2,11-8.7,15.6c-12.7,17.2-43.1,21.4-62.3,7.8
					c-8.7-6.1-12.1-13.7-14.5-22.7C1450.4,491.5,1453.2,487.9,1457.1,487.9z"/>
			</g>
			<path fill="#663B39" d="M1385,259.5c-5.4,6.4-9.9,16.7-3.6,22.2c2,1.8,4.7,2.5,7.3,3.2c65.7,16.7,134.9,19.2,201.6,7.4
				c3.4,18.4,6.9,36.7,10.3,55.1c1.9,10.4,4,21.1,10.1,29.7s17.2,14.6,27.2,11.4c4.4-26.8,6.4-54.3,1.1-81
				c-5.3-26.6-23.8-47.1-40.4-68.6c-8.3-10.7-28-15.8-44.5-20C1494.7,204.3,1424.6,212.9,1385,259.5z"/>
		</g>
	</g>
	<path fill="#663B39" d="M1432.6,347.2c-5.6-0.9-11.1-1.4-16.8-1.4c-5.3,0-11,0-15.3,3.5c-1.4,1.1-0.8,3.4,0.5,4.2
		c3.9,2.4,8.5,2,12.9,2.4c5.3,0.5,10.5,1.3,15.7,2.2C1436.8,359.4,1439.7,348.3,1432.6,347.2z"/>
	<path fill="#663B39" d="M1558.3,346.1c-10.9,0.3-23.5,0.2-33.9,3.5c-4.8,1.5-3.8,8.5,1.2,8.7c5.1,0.2,10.3-0.5,15.4-0.6
		c5.8-0.1,11.6,0.5,17.4,1.1C1566.3,359.7,1566.7,345.8,1558.3,346.1z"/>
	<path fill="#663B39" d="M849,359.5c-10.8-1-22-1.5-32,3.1c-1.9,0.9-1.4,4,0.6,4.4c10.3,2.2,20.9,1.5,31.4,2.8
		C855.6,370.6,855.7,360.1,849,359.5z"/>
</g>
</svg>
