<?xml version="1.0"?>
<svg xmlns="http://www.w3.org/2000/svg" viewBox="0 0 50 50">
    <path d="M 25 2 C 19.486 2 15 6.486 15 12 C 15 15.429 16.4875 17.6985 17.8125 19.6875 C 18.9785 21.4375 20 22.9435 20 25.0625 L 20 29 L 30 29 L 30 25.0625 C 30 22.9425 31.0215 21.4375 32.1875 19.6875 C 33.5125 17.6985 35 15.429 35 12 C 35 6.486 30.514 2 25 2 z M 21 31 C 20.938 31 20.8725 31.01925 20.8125 31.03125 L 4.8125 34.03125 C 4.3395 34.11825 4 34.519 4 35 L 4 42 C 4 42.553 4.448 43 5 43 L 45 43 C 45.553 43 46 42.553 46 42 L 46 35 C 46 34.519 45.6595 34.11825 45.1875 34.03125 L 29.1875 31.03125 C 29.1255 31.01925 29.062 31 29 31 L 21 31 z M 5 45 C 5 46.654 6.346 48 8 48 L 42 48 C 43.654 48 45 46.654 45 45 L 5 45 z"/>
</svg>
